<svg xmlns="http://www.w3.org/2000/svg" viewBox="0 0 500 500"><g id="freepik--Floor--inject-17"><ellipse cx="250" cy="354.31" rx="226.1" ry="130.54" style="fill:#f5f5f5"></ellipse></g><g id="freepik--Shadows--inject-17"><path d="M316.73,296.6,127,406.36c-5.53,3.2-15.19,2.8-21.58-.89L80.26,391c-6.38-3.68-7.08-9.26-1.55-12.46L268.49,268.74c5.53-3.19,15.19-2.79,21.58.9l25.11,14.5C321.57,287.82,322.26,293.4,316.73,296.6Z" style="fill:#e0e0e0"></path><ellipse cx="384.32" cy="399.96" rx="56.68" ry="32.73" style="fill:#e0e0e0"></ellipse><path d="M65,355.38c7.06,4.07,7.06,10.67,0,14.74s-18.48,4.07-25.53,0-7.05-10.67,0-14.74S58,351.31,65,355.38Z" style="fill:#e0e0e0"></path><path d="M252.67,393.08l-101,57.77c-4.53,2.61-12.44,2.28-17.67-.73l-11.88-6.87c-5.23-3-5.8-7.58-1.27-10.2l101.05-57.76c4.53-2.62,12.44-2.29,17.67.73l11.88,6.86C256.63,385.9,257.2,390.47,252.67,393.08Z" style="fill:#e0e0e0"></path><path d="M246.91,417l-40.53,23.5c-4.53,2.61-12.44,2.28-17.67-.74l-11.88-6.86c-5.23-3-5.8-7.58-1.27-10.2l40.53-23.5c4.53-2.61,12.44-2.28,17.67.74l11.89,6.86C250.88,409.85,251.44,414.41,246.91,417Z" style="fill:#e0e0e0"></path></g><g id="freepik--Plant--inject-17"><path d="M51.1,330.16s13.61-13.3,5.86-35.57C52.62,282.11,38.23,273,30,272.08a38.53,38.53,0,0,1,6.4,10.8l10.32,6.86-9.49-3,2,8.12s8.83,5.34,10.13,6.5l-9.51-2.49S40.64,321.89,51.1,330.16Z" style="fill:#618FCB"></path><path d="M51.1,330.16s13.61-13.3,5.86-35.57C52.62,282.11,38.23,273,30,272.08a38.53,38.53,0,0,1,6.4,10.8l10.32,6.86-9.49-3,2,8.12s8.83,5.34,10.13,6.5l-9.51-2.49S40.64,321.89,51.1,330.16Z" style="opacity:0.4"></path><path d="M51.1,330.16s7-27.82-3.38-44.05C47.72,286.11,59.94,300.43,51.1,330.16Z" style="fill:#fff"></path><path d="M35.52,333.92l16.65-.2h.17l16.66.2s.19,20.53-6.13,28.88h0c-1.75,2.22-5.84,3.77-10.61,3.77s-8.88-1.56-10.62-3.79C35.33,354.43,35.52,333.92,35.52,333.92Z" style="fill:#37474f"></path><path d="M35.51,333.92c0,5,7.5,9,16.75,9s16.74-4,16.74-9-7.5-9-16.74-9S35.51,329,35.51,333.92Z" style="fill:#455a64"></path><path d="M52.26,331.54c-5.76,0-10.64,1.85-12.36,4.41a3.62,3.62,0,0,1-.67-2c0-3.55,5.83-6.42,13-6.42s13,2.87,13,6.42a3.68,3.68,0,0,1-.66,2C62.9,333.39,58,331.54,52.26,331.54Z" style="fill:#263238"></path><ellipse cx="52.26" cy="335.95" rx="12.36" ry="4.41" style="fill:#e0e0e0"></ellipse><path d="M52.05,337.06s6.46-.25,12-8.82c2.28-3.54,3.38-5.39,3.38-5.39l-9-.67,10.08-2.52,4.75-7.28-8.36-.62s6.23-2.19,10.68-2.21c0,0,7.71-13.63,10-15.57a43.74,43.74,0,0,0-30.47,15.14C42.4,324.11,50.17,337.44,52.05,337.06Z" style="fill:#618FCB"></path><path d="M52.05,337.06s-4-24.31,21.72-38.93C73.77,298.13,47,311,52.05,337.06Z" style="fill:#fff"></path><path d="M52.05,337.06s-5.84.38-11.64-6.83c-2.39-3-3.56-4.55-3.56-4.55l8-1.45-9.33-1.32-5-6.12,7.49-1.35s-5.83-1.38-9.84-1c0,0-8.24-11.57-10.46-13.11a39.67,39.67,0,0,1,28.91,10.79C59.55,324.47,53.79,337.23,52.05,337.06Z" style="fill:#618FCB"></path><path d="M52.05,337.06s-5.84.38-11.64-6.83c-2.39-3-3.56-4.55-3.56-4.55l8-1.45-9.33-1.32-5-6.12,7.49-1.35s-5.83-1.38-9.84-1c0,0-8.24-11.57-10.46-13.11a39.67,39.67,0,0,1,28.91,10.79C59.55,324.47,53.79,337.23,52.05,337.06Z" style="opacity:0.2"></path><path d="M52.05,337.06S53.41,314.75,28.79,304C28.79,304,54.12,313.05,52.05,337.06Z" style="fill:#fff"></path></g><g id="freepik--Cable--inject-17"><path d="M242,354.19a1.73,1.73,0,0,1-.86-3.23l71.68-41.08A7.3,7.3,0,0,0,313,297.3l-5.68-3.41a19.8,19.8,0,0,0-20.09-.16L281,297.29a16.07,16.07,0,0,1-14.78,0c-2.26-1.3-3.56-3.22-3.56-5.26s1.3-4,3.56-5.27l10.43-6a11.78,11.78,0,0,0,5.87-10.15l0-35.39a1.73,1.73,0,0,1,1.73-1.73h0A1.73,1.73,0,0,1,286,235.2l0,35.39a15.24,15.24,0,0,1-7.6,13.14l-10.43,6c-1.16.67-1.83,1.5-1.83,2.27s.67,1.6,1.83,2.27a12.73,12.73,0,0,0,11.32,0l6.18-3.57a23.27,23.27,0,0,1,23.6.2l5.68,3.4a10.77,10.77,0,0,1-.16,18.55L242.9,354A1.73,1.73,0,0,1,242,354.19Z" style="fill:#618FCB"></path><path d="M242,354.19a1.73,1.73,0,0,1-.86-3.23l71.68-41.08A7.3,7.3,0,0,0,313,297.3l-5.68-3.41a19.8,19.8,0,0,0-20.09-.16L281,297.29a16.07,16.07,0,0,1-14.78,0c-2.26-1.3-3.56-3.22-3.56-5.26s1.3-4,3.56-5.27l10.43-6a11.78,11.78,0,0,0,5.87-10.15l0-35.39a1.73,1.73,0,0,1,1.73-1.73h0A1.73,1.73,0,0,1,286,235.2l0,35.39a15.24,15.24,0,0,1-7.6,13.14l-10.43,6c-1.16.67-1.83,1.5-1.83,2.27s.67,1.6,1.83,2.27a12.73,12.73,0,0,0,11.32,0l6.18-3.57a23.27,23.27,0,0,1,23.6.2l5.68,3.4a10.77,10.77,0,0,1-.16,18.55L242.9,354A1.73,1.73,0,0,1,242,354.19Z" style="opacity:0.2"></path><path d="M284.2,249.18h0a4.29,4.29,0,0,1-4.29-4.28v-12h8.58v12A4.29,4.29,0,0,1,284.2,249.18Z" style="fill:#618FCB"></path><path d="M284.2,249.18h0a4.29,4.29,0,0,1-4.29-4.28v-12h8.58v12A4.29,4.29,0,0,1,284.2,249.18Z" style="opacity:0.4"></path></g><g id="freepik--Device--inject-17"><path d="M260.05,308.93l-29.81,17a15.34,15.34,0,0,1-15.22,0l-19.1-11-2.18-1.26a14.92,14.92,0,0,1-7.45-12.91v-55L231,220.17v56.18a12.88,12.88,0,0,0,6.44,11.15l22.62,13.06A4.83,4.83,0,0,1,260.05,308.93Z" style="fill:#263238"></path><path d="M223.87,327.85a15.29,15.29,0,0,0,6.37-2l29.81-17a4.83,4.83,0,0,0,0-8.37l-15.45-8.92H223.87Z" style="fill:#37474f"></path><path d="M259.52,296.87l.83.66a5.68,5.68,0,0,1,2.13,4.44v2.78h-3Z" style="fill:#37474f"></path><path d="M234.46,224.42V275a12.46,12.46,0,0,0,6.23,10.79l18.83,11.11a4.67,4.67,0,0,1,0,8.1l-2.14,1.22L230.63,321.4a14.82,14.82,0,0,1-14.72,0l-18.53-10.94a12.46,12.46,0,0,1-6.23-10.79V249.07Z" style="fill:#455a64"></path><path d="M234.46,275V224.42l-43.31,24.65v50.55a12.46,12.46,0,0,0,6.23,10.79l42.67-25.05A12.45,12.45,0,0,1,234.46,275Z" style="fill:#263238"></path><path d="M97.41,337.26l-4.92,2.85v9a17.54,17.54,0,0,1-9-2.47l-.38-.23a9.71,9.71,0,0,1-4.5-6.17,5.87,5.87,0,0,1-.26-1.7V326.27Z" style="fill:#263238"></path><path d="M311.33,6.56l-.39-.24a17.64,17.64,0,0,0-9-2.47h0a5.68,5.68,0,0,0-2.88.76L87,126.6a17.15,17.15,0,0,0-8.58,14.86V326.27l19,11L298.93,221.41a17.16,17.16,0,0,0,8.58-14.86V14.92h8.57A9.74,9.74,0,0,0,311.33,6.56Z" style="fill:#37474f"></path><path d="M80.19,133.76a17.28,17.28,0,0,0-1.82,7.7V326.27l19,11,7.13-4.12V148.84Z" style="fill:#263238"></path><path d="M86.94,331.21v12.27a5.62,5.62,0,0,0,8.43,4.86l212.13-122a17.16,17.16,0,0,0,8.58-14.86V198.92Z" style="fill:#37474f"></path><path d="M316.08,14.43a5.62,5.62,0,0,0-8.43-4.87l-212.13,122a17.15,17.15,0,0,0-8.58,14.86v184.8L316.08,198.92" style="fill:#455a64"></path><path d="M303.79,22.94h-.05a6.09,6.09,0,0,0-2.79.65L101.58,138.2A15.16,15.16,0,0,0,94,151.33V308.79a4.89,4.89,0,0,0,.41,2h0a5,5,0,0,0,7,2.33L300.82,198.47a15.16,15.16,0,0,0,7.58-13.12V27.89A5,5,0,0,0,303.79,22.94Z" style="fill:#618FCB"></path><path d="M303.79,22.94h-.05a6.09,6.09,0,0,0-2.79.65L101.58,138.2A15.16,15.16,0,0,0,94,151.33V308.79a4.89,4.89,0,0,0,.41,2h0a5,5,0,0,0,7,2.33L300.82,198.47a15.16,15.16,0,0,0,7.58-13.12V27.89A5,5,0,0,0,303.79,22.94Z" style="fill:#fff;opacity:0.5"></path></g><g id="freepik--Camera--inject-17"><path d="M249.72,319.56v66.79c0,1.47-.88,2.86-2.7,3.91L152.17,445a12.49,12.49,0,0,1-5.27,1.48.13.13,0,0,1-.09,0V377.15Z" style="fill:#618FCB"></path><path d="M165.94,392.47v29.3a6,6,0,0,1-3,5.15l-10.8,6.23a12.49,12.49,0,0,1-5.27,1.48h-.09V398h0a12.54,12.54,0,0,0,5.36-1.49l10.33-6A2.3,2.3,0,0,1,165.94,392.47Z" style="opacity:0.2"></path><path d="M146.9,369.79v76.74H144a17.64,17.64,0,0,1-7.39-2.15l-10.47-6c-2.33-1.34-3.61-3-3.8-4.67V369.79Z" style="fill:#618FCB"></path><path d="M146.9,369.79v76.74H144a17.64,17.64,0,0,1-7.39-2.15l-10.47-6c-2.33-1.34-3.61-3-3.8-4.67V369.79Z" style="opacity:0.30000000000000004"></path><path d="M233.49,311.86c-4.45-1.76-10.15-1.71-13.62.29l-73,42.12L125,366.91c-1.81,1-2.7,2.44-2.7,3.91,0,1.76,1.29,3.63,3.82,5.08L136.6,382a17.42,17.42,0,0,0,7.27,2.13,17,17,0,0,0,3,0,12.36,12.36,0,0,0,5.27-1.49L247,327.82c1.82-1,2.7-2.43,2.7-3.9V304.53Z" style="fill:#618FCB"></path><path d="M233.49,311.86c-4.45-1.76-10.15-1.71-13.62.29l-73,42.12L125,366.91c-1.81,1-2.7,2.44-2.7,3.91,0,1.76,1.29,3.63,3.82,5.08L136.6,382a17.42,17.42,0,0,0,7.27,2.13,17,17,0,0,0,3,0,12.36,12.36,0,0,0,5.27-1.49L247,327.82c1.82-1,2.7-2.43,2.7-3.9V304.53Z" style="fill:#fff;opacity:0.7000000000000001"></path><path d="M146.9,351v33.12h-3A17.42,17.42,0,0,1,136.6,382l-10.47-6.05c-2.53-1.45-3.82-3.32-3.82-5.08V351Z" style="fill:#618FCB"></path><path d="M146.9,351v33.12h-3A17.42,17.42,0,0,1,136.6,382l-10.47-6.05c-2.53-1.45-3.82-3.32-3.82-5.08V351Z" style="fill:#fff;opacity:0.5"></path><path d="M247,308.29l-94.86,54.77c-4,2.31-11,2-15.57-.64l-10.48-6.05c-4.6-2.66-5.1-6.69-1.11-9l94.86-54.77c4-2.3,11-2,15.57.65l10.47,6C250.52,302,251,306,247,308.29Z" style="fill:#618FCB"></path><path d="M247,308.29l-94.86,54.77c-4,2.31-11,2-15.57-.64l-10.48-6.05c-4.6-2.66-5.1-6.69-1.11-9l94.86-54.77c4-2.3,11-2,15.57.65l10.47,6C250.52,302,251,306,247,308.29Z" style="fill:#fff;opacity:0.6000000000000001"></path><path d="M241.6,349.18l-9.71-5.64h0c-5.93-3.63-14.22-3.23-23.41,2.07-18,10.4-32.62,35.7-32.62,56.51,0,9.55,3.08,16.48,8.15,20.19h0l0,0a15.12,15.12,0,0,0,2.66,1.57l7.71,4.53,1.89-3.17A31.54,31.54,0,0,0,208.48,421c18-10.4,32.63-35.7,32.63-56.5a33,33,0,0,0-1.83-11.38Z" style="fill:#618FCB"></path><path d="M241.6,349.18l-9.71-5.64h0c-5.93-3.63-14.22-3.23-23.41,2.07-18,10.4-32.62,35.7-32.62,56.51,0,9.55,3.08,16.48,8.15,20.19h0l0,0a15.12,15.12,0,0,0,2.66,1.57l7.71,4.53,1.89-3.17A31.54,31.54,0,0,0,208.48,421c18-10.4,32.63-35.7,32.63-56.5a33,33,0,0,0-1.83-11.38Z" style="opacity:0.5"></path><ellipse cx="217.52" cy="388.5" rx="46.14" ry="26.64" transform="translate(-227.69 382.63) rotate(-60)" style="fill:#618FCB"></ellipse><ellipse cx="217.52" cy="388.5" rx="46.14" ry="26.64" transform="translate(-227.69 382.63) rotate(-60)" style="opacity:0.2"></ellipse><path d="M245.22,361.6,237.34,357h0c-4.81-2.95-11.55-2.62-19,1.68-14.63,8.45-26.48,29-26.48,45.87,0,7.75,2.5,13.38,6.61,16.39h0l0,0a12.7,12.7,0,0,0,2.17,1.27l6.26,3.68,1.53-2.57a25.68,25.68,0,0,0,9.89-3.5c14.62-8.44,26.48-29,26.48-45.87a27,27,0,0,0-1.48-9.23Z" style="fill:#618FCB"></path><path d="M245.22,361.6,237.34,357h0c-4.81-2.95-11.55-2.62-19,1.68-14.63,8.45-26.48,29-26.48,45.87,0,7.75,2.5,13.38,6.61,16.39h0l0,0a12.7,12.7,0,0,0,2.17,1.27l6.26,3.68,1.53-2.57a25.68,25.68,0,0,0,9.89-3.5c14.62-8.44,26.48-29,26.48-45.87a27,27,0,0,0-1.48-9.23Z" style="opacity:0.4"></path><ellipse cx="225.67" cy="393.52" rx="37.45" ry="21.62" transform="translate(-227.96 392.2) rotate(-60)" style="fill:#618FCB"></ellipse><ellipse cx="225.67" cy="393.52" rx="23.26" ry="13.43" transform="translate(-227.96 392.2) rotate(-60)" style="opacity:0.6000000000000001"></ellipse><path d="M224.46,375.3c-8.11,5.37-14.58,16.56-15.17,26.27,1.92,2.7,5.49,3.21,9.58.84C225,398.87,230,390.26,230,383.18,230,378.45,227.76,375.62,224.46,375.3Z" style="fill:#618FCB"></path><path d="M224.46,375.3c-8.11,5.37-14.58,16.56-15.17,26.27,1.92,2.7,5.49,3.21,9.58.84C225,398.87,230,390.26,230,383.18,230,378.45,227.76,375.62,224.46,375.3Z" style="opacity:0.8"></path><path d="M224.38,384.29a6.62,6.62,0,0,1-3,5.19c-1.65,1-3,.18-3-1.73a6.67,6.67,0,0,1,3-5.2C223,381.6,224.38,382.37,224.38,384.29Z" style="fill:#fafafa"></path><path d="M154.09,400.31a.79.79,0,1,1-.78-.79A.78.78,0,0,1,154.09,400.31Z" style="fill:#618FCB"></path><path d="M157.65,398.15a.79.79,0,1,1-.78-.79A.78.78,0,0,1,157.65,398.15Z" style="fill:#618FCB"></path><path d="M161.21,396.13a.79.79,0,1,1-.78-.78A.78.78,0,0,1,161.21,396.13Z" style="fill:#618FCB"></path><circle cx="153.31" cy="404.81" r="0.78" style="fill:#618FCB"></circle><path d="M157.65,402.65a.79.79,0,1,1-.78-.78A.78.78,0,0,1,157.65,402.65Z" style="fill:#618FCB"></path><path d="M161.21,400.64a.79.79,0,1,1-.78-.79A.78.78,0,0,1,161.21,400.64Z" style="fill:#618FCB"></path><circle cx="153.31" cy="409.31" r="0.78" style="fill:#618FCB"></circle><circle cx="156.87" cy="407.15" r="0.78" style="fill:#618FCB"></circle><path d="M161.21,405.14a.79.79,0,1,1-.78-.78A.78.78,0,0,1,161.21,405.14Z" style="fill:#618FCB"></path><circle cx="153.31" cy="413.82" r="0.78" style="fill:#618FCB"></circle><circle cx="156.87" cy="411.66" r="0.78" style="fill:#618FCB"></circle><path d="M161.21,409.64a.79.79,0,1,1-.78-.78A.78.78,0,0,1,161.21,409.64Z" style="fill:#618FCB"></path><path d="M154.09,418.32a.79.79,0,0,1-1.57,0,.79.79,0,1,1,1.57,0Z" style="fill:#618FCB"></path><circle cx="156.87" cy="416.16" r="0.78" style="fill:#618FCB"></circle><path d="M161.21,414.15a.79.79,0,1,1-.78-.79A.78.78,0,0,1,161.21,414.15Z" style="fill:#618FCB"></path><circle cx="153.31" cy="422.82" r="0.78" style="fill:#618FCB"></circle><path d="M157.65,420.66a.79.79,0,1,1-.78-.78A.78.78,0,0,1,157.65,420.66Z" style="fill:#618FCB"></path><path d="M161.21,418.65a.79.79,0,1,1-.78-.78A.78.78,0,0,1,161.21,418.65Z" style="fill:#618FCB"></path><circle cx="153.31" cy="427.33" r="0.78" style="fill:#618FCB"></circle><path d="M157.65,425.17a.79.79,0,1,1-.78-.79A.78.78,0,0,1,157.65,425.17Z" style="fill:#618FCB"></path><path d="M161.21,423.15a.79.79,0,1,1-.78-.78A.78.78,0,0,1,161.21,423.15Z" style="fill:#618FCB"></path><path d="M211.24,317.06l-3.19.49-9.43-5.45-16.19,9.35-10,1.52v4.23l10.14,5.85c3,1.73,7.53,1.92,10.13.42l16.74-9.67a3,3,0,0,0,1.75-2.41h0Z" style="fill:#618FCB"></path><path d="M211.24,317.06l-3.19.49-9.43-5.45-16.19,9.35-10,1.52v4.23l10.14,5.85c3,1.73,7.53,1.92,10.13.42l16.74-9.67a3,3,0,0,0,1.75-2.41h0Z" style="opacity:0.2"></path><path d="M209.48,319.57l-16.74,9.67c-2.6,1.5-7.13,1.31-10.13-.42L172.47,323l26.15-15.1,10.14,5.85C211.76,315.45,212.08,318.07,209.48,319.57Z" style="fill:#618FCB"></path><path d="M203.91,313.58l-2.28.35-6.75-3.9-11.59,6.69-7.12,1.09v3l7.25,4.18a8,8,0,0,0,7.25.3l12-6.91a2.18,2.18,0,0,0,1.25-1.73h0Z" style="fill:#618FCB"></path><path d="M203.91,313.58l-2.28.35-6.75-3.9-11.59,6.69-7.12,1.09v3l7.25,4.18a8,8,0,0,0,7.25.3l12-6.91a2.18,2.18,0,0,0,1.25-1.73h0Z" style="opacity:0.2"></path><path d="M202.65,315.38l-12,6.91a8,8,0,0,1-7.25-.3l-7.25-4.18L194.88,307l7.25,4.19C204.28,312.43,204.51,314.3,202.65,315.38Z" style="fill:#618FCB"></path><path d="M158.24,348.41a3.38,3.38,0,0,0,0-.45v-6.39H137.36v6.9h0c.11,1.45,1.12,2.87,3,4a16.37,16.37,0,0,0,14.78,0c1.92-1.11,2.92-2.53,3-4h0Z" style="fill:#618FCB"></path><path d="M158.24,348.41a3.38,3.38,0,0,0,0-.45v-6.39H137.36v6.9h0c.11,1.45,1.12,2.87,3,4a16.37,16.37,0,0,0,14.78,0c1.92-1.11,2.92-2.53,3-4h0Z" style="opacity:0.2"></path><path d="M155.2,337.3c4.08,2.36,4.08,6.18,0,8.53a16.31,16.31,0,0,1-14.78,0c-4.08-2.35-4.08-6.17,0-8.53A16.31,16.31,0,0,1,155.2,337.3Z" style="fill:#618FCB"></path><path d="M217.12,305.75V303h-8.39v2.78h0a2.17,2.17,0,0,0,1.22,1.6,6.61,6.61,0,0,0,5.94,0,2.19,2.19,0,0,0,1.22-1.6h0Z" style="fill:#618FCB"></path><path d="M217.12,305.75V303h-8.39v2.78h0a2.17,2.17,0,0,0,1.22,1.6,6.61,6.61,0,0,0,5.94,0,2.19,2.19,0,0,0,1.22-1.6h0Z" style="opacity:0.2"></path><path d="M215.9,301.29c1.64.95,1.64,2.48,0,3.43a6.61,6.61,0,0,1-5.94,0c-1.64-1-1.64-2.48,0-3.43A6.55,6.55,0,0,1,215.9,301.29Z" style="fill:#618FCB"></path><path d="M236.05,305a2.28,2.28,0,0,0,0-.37v-5.24H218.94v5.66h0a4.38,4.38,0,0,0,2.49,3.26,13.39,13.39,0,0,0,12.11,0,4.39,4.39,0,0,0,2.48-3.26h0Z" style="fill:#618FCB"></path><path d="M236.05,305a2.28,2.28,0,0,0,0-.37v-5.24H218.94v5.66h0a4.38,4.38,0,0,0,2.49,3.26,13.39,13.39,0,0,0,12.11,0,4.39,4.39,0,0,0,2.48-3.26h0Z" style="opacity:0.2"></path><path d="M220.61,300.64v7.09a3.45,3.45,0,0,1-.63-.57v-6.52Z" style="fill:#618FCB"></path><path d="M223,300.64V309a4.86,4.86,0,0,1-.63-.25v-8.12Z" style="fill:#618FCB"></path><path d="M225.41,300.64v8.95a4.58,4.58,0,0,1-.63-.1v-8.85Z" style="fill:#618FCB"></path><path d="M227.81,300.64v9.1h-.62v-9.1Z" style="fill:#618FCB"></path><path d="M230.22,300.64v8.85a4.69,4.69,0,0,1-.62.1v-8.95Z" style="fill:#618FCB"></path><path d="M232.62,300.64v8.12a4.73,4.73,0,0,1-.62.25v-8.37Z" style="fill:#618FCB"></path><path d="M235,300.64v6.53a4.07,4.07,0,0,1-.62.55v-7.08Z" style="fill:#618FCB"></path><path d="M233.56,295.89c3.34,1.93,3.34,5.06,0,7a13.39,13.39,0,0,1-12.11,0c-3.35-1.94-3.35-5.07,0-7A13.39,13.39,0,0,1,233.56,295.89Z" style="fill:#618FCB"></path><ellipse cx="227.5" cy="299.39" rx="3.73" ry="2.15" style="opacity:0.2"></ellipse></g></svg>