<svg fill="none" height="24" viewBox="0 0 24 24" width="24" xmlns="http://www.w3.org/2000/svg"><g fill="#1c274c"><path d="m11.9998 21.9997c4.8362 0 8.7567-3.8838 8.7567-8.6747 0-4.79083-3.9205-8.67461-8.7567-8.67461-4.83614 0-8.75664 3.88378-8.75664 8.67461 0 4.7909 3.9205 8.6747 8.75664 8.6747z" opacity=".5"/><path d="m11.9993 8.74707c.403 0 .7297.32365.7297.72289v3.55594l2.2187 2.1979c.2849.2823.2849.74 0 1.0223-.285.2824-.7471.2824-1.032 0l-2.4324-2.4096c-.1369-.1355-.2138-.3194-.2138-.5111v-3.85544c0-.39924.3267-.72289.7298-.72289z"/><g clip-rule="evenodd" fill-rule="evenodd"><path d="m8.2405 2.33986c.21359.33855.1097.78454-.23206.99613l-3.89187 2.40963c-.34176.2116-.79196.10868-1.00555-.22988-.2136-.33856-.10971-.78454.23205-.99614l3.89187-2.40962c.34176-.2116.79196-.10868 1.00556.22988z"/><path d="m15.7595 2.33985c.2136-.33855.6638-.44147 1.0056-.22987l3.8918 2.40962c.3418.2116.4457.65759.2321.99614-.2136.33856-.6638.44148-1.0056.22988l-3.8918-2.40963c-.3418-.21159-.4457-.65758-.2321-.99614z"/></g></g></svg>