<svg xmlns="http://www.w3.org/2000/svg" width="24" height="24" fill="none" viewBox="0 0 24 24" id="arrow-narrow-top-left"><path fill="#000" d="M6 7.41416V6H7.41427L19.7782 18.3639C20.1687 18.7544 20.1687 19.3876 19.7782 19.7781C19.3877 20.1686 18.7545 20.1686 18.364 19.7781L6 7.41416Z" opacity=".4"></path><path fill="#000" fill-rule="evenodd" d="M11.5858 5C11.5858 4.44772 11.1381 4 10.5858 4L5.00001 4C4.73479 4 4.48043 4.10536 4.2929 4.29289C4.10536 4.48043 4.00001 4.73478 4.00001 5L4.00001 10.5857C4.00001 11.138 4.44772 11.5857 5 11.5857C5.55229 11.5857 6.00001 11.138 6 10.5857L6.00001 6L10.5858 6C11.1381 6 11.5858 5.55228 11.5858 5Z" clip-rule="evenodd"></path></svg>