<svg fill="none" height="24" viewBox="0 0 24 24" width="24" xmlns="http://www.w3.org/2000/svg"><g fill="#1c274c"><path clip-rule="evenodd" d="m8.73167 5.77133-3.06214 4.14303c-1.28473 1.73824-1.92709 2.60734-1.57314 3.29064.00586.0114.0119.0226.01811.0337.37495.673 1.48438.673 3.70325.673 1.23304 0 1.84955 0 2.23625.3637l.02.0192 3.872-4.56994-.02-.01925c-.3786-.37155-.3786-.9639-.3786-2.14859v-.3097c0-3.28463 0-4.92694-.9233-5.20991-.9234-.28296-1.9131 1.05606-3.89243 3.73412z" fill-rule="evenodd"/><path d="m10.4527 16.4432v.3096c0 3.2846 0 4.927.9233 5.2099.9234.283 1.9131-1.056 3.8925-3.7341l3.0621-4.143c1.2848-1.7382 1.9271-2.6073 1.5732-3.2907-.0059-.0113-.0119-.0225-.0181-.0336-.375-.673-1.4844-.673-3.7033-.673-1.233 0-1.8495 0-2.2362-.36369l-3.872 4.56999c.3786.3715.3785.9639.3785 2.1486z" opacity=".5"/></g></svg>