<?xml version="1.0" encoding="UTF-8" standalone="no"?>
<!-- Created with Inkscape (http://www.inkscape.org/) -->

<svg
   width="10.318749mm"
   height="12.7mm"
   viewBox="0 0 10.318749 12.7"
   version="1.1"
   id="svg94783"
   inkscape:version="1.1.2 (0a00cf5339, 2022-02-04)"
   sodipodi:docname="kobo.svg"
   xmlns:inkscape="http://www.inkscape.org/namespaces/inkscape"
   xmlns:sodipodi="http://sodipodi.sourceforge.net/DTD/sodipodi-0.dtd"
   xmlns="http://www.w3.org/2000/svg"
   xmlns:svg="http://www.w3.org/2000/svg">
  <sodipodi:namedview
     id="namedview94785"
     pagecolor="#ffffff"
     bordercolor="#666666"
     borderopacity="1.0"
     inkscape:pageshadow="2"
     inkscape:pageopacity="0.0"
     inkscape:pagecheckerboard="0"
     inkscape:document-units="mm"
     showgrid="false"
     inkscape:zoom="1.7910329"
     inkscape:cx="-25.125167"
     inkscape:cy="48.016985"
     inkscape:window-width="1920"
     inkscape:window-height="996"
     inkscape:window-x="0"
     inkscape:window-y="0"
     inkscape:window-maximized="1"
     inkscape:current-layer="g95013" />
  <defs
     id="defs94780" />
  <g
     inkscape:label="Layer 1"
     inkscape:groupmode="layer"
     id="layer1"
     transform="translate(-83.656863,-134.85719)">
    <g
       id="g95013"
       transform="matrix(0.26458333,0,0,0.26458333,83.656863,144.26667)">
      <g
         id="g122092"
         transform="matrix(0.24375,0,0,0.26458334,0,-26.153912)">
        <path
           d="M 121.43897,88.130238 V 105.6535 c 0,10.3078 -9.57804,17.52327 -20.35329,17.52327 H 56.78734 c -11.972527,0 -20.353291,-8.24624 -20.353291,-17.52327 V 6.6985965 c 0,-10.3078013 9.578021,-17.5232645 20.353291,-17.5232645 h 44.29834 c 11.9725,0 20.35329,8.2462416 20.35329,17.5232645 v 2.0615597 c 3.59169,-1.0307783 8.38076,-2.0615597 11.97251,-2.0615597 4.789,0 9.57798,1.0307814 14.36698,2.0615597 v -3.092338 c 0,-22.6771682 -21.55056,-41.2312112 -47.890027,-41.2312112 H 55.590084 C 29.250545,-35.563393 7.7,-17.00935 7.7,5.6678182 V 104.62272 c 0,22.67717 21.550545,41.23121 47.890084,41.23121 h 44.298349 c 26.339467,0 47.890027,-18.55404 47.890027,-41.23121 V 60.299171 Z"
           id="path94970"
           style="fill:#1c284c;fill-opacity:0.501961;stroke-width:11.109" />
        <path
           d="M 99.888433,81.945556 147.77846,34.529665 c 1.19723,-1.030781 1.19723,-4.123122 0,-5.153903 -8.38074,-6.184682 -21.55056,-5.153901 -28.73395,2.061562 L 89.113118,61.329951 c -1.197251,1.03078 -2.394499,1.03078 -2.394499,0 L 75.943377,49.991368 c -2.394508,-2.061561 -5.986266,-2.061561 -8.380773,0 -7.183511,6.184681 -7.183511,16.492484 -1.197245,23.707946 l 9.578018,9.277022 c 4.788996,6.184682 16.761472,6.184682 23.945056,-1.03078 z"
           id="path94972"
           style="fill:#1c274c;fill-opacity:1;stroke-width:11.109" />
        <path
           d="M 0,0 H 160 V 32 H 0 Z"
           fill="none"
           id="path94990" />
      </g>
      <g
         fill="#2095f3"
         id="g94988" />
    </g>
  </g>
</svg>
