<svg fill="none" height="24" viewBox="0 0 24 24" width="24" xmlns="http://www.w3.org/2000/svg"><g fill="#1c274c"><path clip-rule="evenodd" d="m14.4467 16.3769 5.8468-5.8293c.8421-.83949 1.2631-1.25924 1.4848-1.79302.2218-.53377.2218-1.12739.2218-2.31462v-.56719c0-1.82564 0-2.73846-.5689-3.30562-.5688-.56715-1.4844-.56715-3.3155-.56715h-.5689c-1.1908 0-1.7862 0-2.3216.2211s-.9564.64085-1.7984 1.48036l-5.84689 5.82932c-.98392.98092-1.594 1.58922-1.83025 2.17672-.07464.1856-.11196.3692-.11196.5617 0 .8021.6474 1.4476 1.94221 2.7385l.17402.1735 2.03852-2.0689c.29075-.2951.76555-.2986 1.06065-.0079.295.2907.2985.7656.0078 1.0607l-2.0447 2.0752.13706.1366c1.29484 1.291 1.94224 1.9364 2.74674 1.9364.1777 0 .3478-.0315.5189-.0945.6033-.2222 1.2191-.8362 2.2278-1.8419zm2.7468-6.8457c-.7585.7562-1.9882.7562-2.7467 0s-.7585-1.98225 0-2.73846 1.9882-.75621 2.7467 0 .7585 1.98226 0 2.73846z" fill-rule="evenodd"/><g opacity=".5"><path d="m9.03429 5.96305-2.54315 2.53551c-.46745.46604-.89626.89354-1.2349 1.28-.21747.24814-.43479.51984-.61887.81994l-.02478-.0247c-.04704-.0469-.07058-.0704-.0942-.0933-.44203-.4289-.96198-.76988-1.53203-1.00475-.03046-.01255-.06138-.0248-.12322-.0493l-.37865-.15004c-.51296-.20326-.64967-.86362-.25935-1.25276 1.12021-1.11681 2.46518-2.45771 3.11427-2.72703.57244-.23751 1.19082-.31654 1.78723-.2284.54647.08076 1.06342.36146 1.90765.89483z"/><path d="m13.3767 19.3132c.2049.208.341.3549.4641.5119.1623.2071.3075.4271.434.6578.1424.2597.253.5371.4742 1.0919.18.4517.7782.5711 1.1256.2247l.084-.0838c1.1202-1.1169 2.4651-2.4578 2.7352-3.1049.2383-.5708.3175-1.1873.2291-1.7819-.081-.5448-.3624-1.0601-.8973-1.9016l-2.5516 2.544c-.4781.4766-.9164.9137-1.3128 1.256-.2376.2052-.4975.4103-.7845.5859z"/></g></g></svg>