<svg fill="none" height="24" viewBox="0 0 24 24" width="24" xmlns="http://www.w3.org/2000/svg"><g fill="#1c274c"><circle cx="5" cy="5" opacity=".5" r="3"/><circle cx="19" cy="19" opacity=".5" r="3"/><path clip-rule="evenodd" d="m10.2501 5c0-.41421.3358-.75.75-.75h5.1319c2.7512 0 3.7975 3.593 1.4764 5.07007l-10.41127 6.62533c-1.05506.6714-.57947 2.3046.67108 2.3046h3.32119l-.2196-.2197c-.2929-.2929-.2929-.7677 0-1.0606s.7677-.2929 1.0606 0l1.5 1.5c.2929.2929.2929.7677 0 1.0606l-1.5 1.5c-.2929.2929-.7677.2929-1.0606 0s-.2929-.7677 0-1.0606l.2196-.2197h-3.32119c-2.75124 0-3.7975-3.593-1.4764-5.0701l10.41129-6.62532c1.055-.6714.5794-2.30458-.6711-2.30458h-5.1319c-.4142 0-.75-.33579-.75-.75z" fill-rule="evenodd"/></g></svg>