<svg fill="none" height="24" viewBox="0 0 24 24" width="24" xmlns="http://www.w3.org/2000/svg"><g fill="#1c274c"><path d="m3 10.4167c0-3.19763 0-4.79642.37752-5.33429.37751-.53787 1.8808-1.05245 4.88739-2.08162l.57281-.19607c1.56728-.53648 2.35088-.80472 3.16228-.80472s1.595.26824 3.1623.80472l.5728.19607c3.0066 1.02917 4.5099 1.54375 4.8874 2.08162s.3775 2.13666.3775 5.33429v1.5747c0 5.638-4.239 8.3741-6.8986 9.5359-.7214.3151-1.0821.4727-2.1014.4727s-1.38-.1576-2.10144-.4727c-2.6596-1.1618-6.89856-3.8979-6.89856-9.5359z" opacity=".5"/><path d="m13.5 15c0 .5523-.4477 1-1 1h-1c-.5523 0-1-.4477-1-1v-1.4013c-.8967-.5188-1.5-1.4883-1.5-2.5987 0-1.65685 1.3431-3 3-3s3 1.34315 3 3c0 1.1104-.6033 2.0799-1.5 2.5987z"/></g></svg>