<svg fill="none" height="24" viewBox="0 0 24 24" width="24" xmlns="http://www.w3.org/2000/svg"><g fill="#1c274c"><path d="m10.2768 16.5148c.0047-.1098.1866-.1535.2406-.0577.2533.4497.6855 1.1111 1.1758 1.4118.4904.3007 1.2758.386 1.7915.4079.1098.0047.1534.1866.0576.2406-.4497.2533-1.111.6855-1.4117 1.1758-.3007.4904-.386 1.2758-.4079 1.7915-.0047.1098-.1867.1534-.2406.0576-.2534-.4497-.6855-1.111-1.1759-1.4117-.49032-.3007-1.27572-.386-1.79139-.4079-.10986-.0047-.15348-.1867-.05768-.2406.44969-.2534 1.11105-.6855 1.41176-1.1759.30071-.4903.38601-1.2757.40791-1.7914z"/><path d="m18.4919 15.5147c-.0085-.1096-.2003-.1556-.2576-.0617-.1723.2825-.4208.6234-.6969.7928-.2762.1694-.6928.2362-1.0227.2617-.1096.0085-.1556.2003-.0617.2576.2825.1723.6234.4207.7928.6969s.2362.6928.2617 1.0227c.0085.1096.2003.1556.2576.0617.1723-.2825.4207-.6234.6969-.7928s.6928-.2362 1.0227-.2617c.1096-.0085.1556-.2003.0617-.2576-.2825-.1723-.6234-.4208-.7928-.6969-.1694-.2762-.2362-.6928-.2617-1.0227z" opacity=".5"/><path d="m14.7034 4.00181-.2423-.30607c-.9366-1.18308-1.405-1.77462-1.9498-1.68729-.5448.08732-.8054.79567-1.3264 2.21238l-.1348.36652c-.1481.40258-.2221.60387-.3641.75162-.142.14774-.3359.2252-.72358.38014l-.353.14105-.24786.09917c-1.19952.48127-1.80395.75398-1.88112 1.28391-.08231.56525.48979 1.04881 1.63399 2.01591l.29602.2502c.32515.27482.48772.41223.58092.59955.09323.1873.10643.4032.13303.8352l.0241.3932c.0934 1.5201.1401 2.2801.6341 2.5421.4939.262 1.108-.1475 2.3362-.9665l.3178-.2119c.349-.2327.5235-.3491.7231-.381.1996-.032.4016.024.8058.136l.3679.102c1.4221.3942 2.1332.5913 2.5208.188s.1951-1.1399-.1901-2.6132l-.0996-.38117c-.1094-.41866-.1642-.62799-.134-.83506.0301-.20706.1418-.38841.365-.75111v-.00002l.2032-.33022c.7856-1.27639 1.1784-1.91459.924-2.42587-.2545-.51129-.9876-.55706-2.4538-.64859l-.3793-.02368c-.4167-.02601-.625-.03901-.806-.135-.1809-.09598-.314-.26408-.5802-.60027z"/><path d="m8.835 13.326c-2.13728 1.0442-3.91569 2.698-4.58656 4.6742-.75255-4.7076.29132-7.7476 1.96464-9.63692.1442.29472.33158.53872.49989.72941.34989.39642.85221.82078 1.36226 1.25171l.36702.3101c.06959.0589.12372.1047.16972.1444.00468.0643.00932.1394.0153.2368l.02981.4855c.04009.6549.07922 1.2943.17792 1.8048z" opacity=".5"/></g></svg>