<?xml version="1.0" encoding="UTF-8" standalone="no"?>
<!-- Created with Inkscape (http://www.inkscape.org/) -->

<svg
   version="1.1"
   id="svg33178"
   sodipodi:docname="logo.svg"
   width="52.42984"
   height="51.904106"
   inkscape:version="1.1.2 (0a00cf5339, 2022-02-04)"
   xmlns:inkscape="http://www.inkscape.org/namespaces/inkscape"
   xmlns:sodipodi="http://sodipodi.sourceforge.net/DTD/sodipodi-0.dtd"
   xmlns="http://www.w3.org/2000/svg"
   xmlns:svg="http://www.w3.org/2000/svg">
  <sodipodi:namedview
     id="namedview1240"
     pagecolor="#ffffff"
     bordercolor="#666666"
     borderopacity="1.0"
     inkscape:pageshadow="2"
     inkscape:pageopacity="0.0"
     inkscape:pagecheckerboard="0"
     showgrid="false"
     inkscape:zoom="2.7845703"
     inkscape:cx="198.59437"
     inkscape:cy="96.244652"
     inkscape:window-width="1920"
     inkscape:window-height="996"
     inkscape:window-x="0"
     inkscape:window-y="0"
     inkscape:window-maximized="1"
     inkscape:current-layer="g2736" />
  <defs
     id="defs33175">
    <rect
       x="306.49933"
       y="255.71603"
       width="253.08983"
       height="180.01303"
       id="rect38943" />
    <clipPath
       clipPathUnits="userSpaceOnUse"
       id="clipPath1108">
      <path
         d="M 0,595.28 H 841.89 V 0 H 0 Z"
         id="path1106" />
    </clipPath>
    <rect
       x="609.17072"
       y="79.935448"
       width="481.86957"
       height="116.63798"
       id="rect5861" />
    <rect
       x="609.17072"
       y="79.935448"
       width="1015.8355"
       height="191.08064"
       id="rect5869" />
    <rect
       x="-694.82166"
       y="201.06966"
       width="1303.1658"
       height="421.55453"
       id="rect30203" />
  </defs>
  <g
     id="layer1"
     transform="translate(-7.916076,-54.650886)">
    <g
       id="g1102"
       transform="matrix(0.35277777,0,0,-0.35277777,-53.024206,262.55955)">
      <g
         id="g2736"
         style="fill:#000000"
         transform="translate(1.806989,63.860133)">
        <g
           id="g1122"
           transform="translate(193.812,510.3848)"
           style="fill:#000000">
          <path
             d="m 0,0 c 0.213,-6.315 -4.727,-11.611 -11.045,-11.829 -6.311,-0.216 -11.61,4.729 -11.823,11.042 -0.217,6.315 4.727,11.606 11.042,11.831 C -5.513,11.254 -0.227,6.313 0,0"
             style="fill:#000000;fill-opacity:1;fill-rule:nonzero;stroke:none"
             id="path1124" />
        </g>
        <g
           id="g1126"
           transform="translate(307.498,502.623)"
           style="fill:#000000">
          <path
             d="m 0,0 c -6.307,0.346 -11.145,5.739 -10.795,12.049 0.338,6.307 5.734,11.142 12.044,10.798 C 7.554,22.498 12.394,17.107 12.041,10.795 11.701,4.485 6.309,-0.34 0,0"
             style="fill:#000000;fill-opacity:1;fill-rule:nonzero;stroke:none"
             id="path1128" />
        </g>
        <g
           id="g1130"
           transform="translate(293.3071,391.1592)"
           style="fill:#000000">
          <path
             d="M 0,0 C 0.595,6.284 6.172,10.902 12.467,10.305 18.754,9.712 23.372,4.132 22.771,-2.162 22.176,-8.447 16.598,-13.066 10.314,-12.474 4.018,-11.874 -0.593,-6.293 0,0"
             style="fill:#000000;fill-opacity:1;fill-rule:nonzero;stroke:none"
             id="path1132" />
        </g>
        <g
           id="g1134"
           transform="translate(187.4731,401.2363)"
           style="fill:#000000">
          <path
             d="M 0,0 C 6.305,0.078 11.491,-4.981 11.573,-11.293 11.654,-17.608 6.589,-22.798 0.274,-22.878 -6.041,-22.951 -11.225,-17.897 -11.304,-11.58 -11.382,-5.262 -6.328,-0.078 0,0"
             style="fill:#000000;fill-opacity:1;fill-rule:nonzero;stroke:none"
             id="path1136" />
        </g>
        <g
           id="g1200"
           transform="translate(285.8716,512.21)"
           style="fill:#000000">
          <path
             d="m 0,0 -71.218,-31.23 7.162,-12.802 70.837,28.39 -8.231,-26.289 8.551,-20.955 13.625,42.657 C 16.708,-0.635 0,0 0,0"
             style="fill:#000000;fill-opacity:1;fill-rule:nonzero;stroke:none"
             id="path1202" />
        </g>
        <g
           id="g1204"
           transform="translate(275.2476,484.0181)"
           style="fill:#000000">
          <path
             d="m 0,0 -15.686,-6.232 28.279,-71.56 -27.519,10.794 -18.116,-9.139 40.5,-15.411 c 0,0 15.118,2.229 21.04,19.915 z"
             style="fill:#000000;fill-opacity:1;fill-rule:nonzero;stroke:none"
             id="path1206" />
        </g>
        <g
           id="g1208"
           transform="translate(268.3589,444.9785)"
           style="fill:#000000">
          <path
             d="m 0,0 -66.49,-36.704 7.764,29.869 -9.892,18.919 -12.096,-45.147 c 0,0 6.676,-18.184 22.034,-18.8 l 65.909,35.835 z"
             style="fill:#000000;fill-opacity:1;fill-rule:nonzero;stroke:none"
             id="path1210" />
        </g>
        <g
           id="g1212"
           transform="translate(229.5923,490.4727)"
           style="fill:#000000">
          <path
             d="m 0,0 20.298,8.866 -45.405,11.103 c 0,0 -16.706,-4.574 -18.297,-22.45 l 35.813,-65.155 15.713,8.938 -36.55,64.362 z"
             style="fill:#000000;fill-opacity:1;fill-rule:nonzero;stroke:none"
             id="path1214" />
        </g>
        <text
           xml:space="preserve"
           transform="matrix(0.75000002,0,0,-0.75000002,170.93712,525.48727)"
           id="text5859"
           style="font-style:normal;font-weight:normal;font-size:40px;line-height:1.25;font-family:sans-serif;white-space:pre;shape-inside:url(#rect5861);fill:#000000;fill-opacity:1;stroke:none" />
        <text
           xml:space="preserve"
           transform="matrix(0.75000002,0,0,-0.75000002,170.93712,525.48727)"
           id="text5867"
           style="font-style:normal;font-weight:normal;font-size:40px;line-height:1.25;font-family:sans-serif;white-space:pre;shape-inside:url(#rect5869);fill:#000000;fill-opacity:1;stroke:none" />
        <text
           xml:space="preserve"
           transform="matrix(0.75000002,0,0,-0.75000002,148.49785,680.40317)"
           id="text38941"
           style="font-style:normal;font-weight:normal;font-size:40px;line-height:1.25;font-family:sans-serif;white-space:pre;shape-inside:url(#rect38943);fill:#000000;fill-opacity:1;stroke:none" />
      </g>
    </g>
  </g>
</svg>
